# xmcd
#
# Track frame offsets:
#	205
#	25120
#	49297
#	70425
#	82862
#	99472
#	112010
#	135225
#	152302
#	168225
#	179805
#
# Disc length: 2808 seconds
#
# Revision: 1
# Processed by: cddbd v1.5.1PL2 Copyright (c) Steve Scherf et al.
# Submitted via: audiograbber 1.81.03
#
DISCID=870af60b
DTITLE=JohnyWinter - SecondWinter
DYEAR=1969
DGENRE=
TTITLE0=Memory pain
TTITLE1=I'm not shure
TTITLE2=The good love
TTITLE3=Slippin' and slidin'
TTITLE4=Miss Ann
TTITLE5=Johnny B Goode
TTITLE6=Highway 61 Revisited
TTITLE7=I love everybody
TTITLE8=Hustled down in Texas
TTITLE9=I hate everybody
TTITLE10=Fast Life Rider
EXTD=
EXTT0=
EXTT1=
EXTT2=
EXTT3=
EXTT4=
EXTT5=
EXTT6=
EXTT7=
EXTT8=
EXTT9=
EXTT10=
PLAYORDER=
